<svg xmlns="http://www.w3.org/2000/svg" width="940" height="170" viewBox="0 0 940 170">
<rect width="100%" height="100%" fill="#fbfaf7"/>
<text x="20" y="28" font-family="Georgia, serif" font-size="20" fill="#1d2528">Episode-level outcomes</text>
<text x="20" y="61" font-family="Arial" font-size="12" fill="#2f3a40">Official 512</text>
<rect x="150" y="50" width="12" height="12" rx="2" fill="#c8553d"/>
<rect x="165" y="50" width="12" height="12" rx="2" fill="#c8553d"/>
<rect x="180" y="50" width="12" height="12" rx="2" fill="#4f9d69"/>
<rect x="195" y="50" width="12" height="12" rx="2" fill="#4f9d69"/>
<rect x="210" y="50" width="12" height="12" rx="2" fill="#4f9d69"/>
<rect x="225" y="50" width="12" height="12" rx="2" fill="#4f9d69"/>
<rect x="240" y="50" width="12" height="12" rx="2" fill="#4f9d69"/>
<rect x="255" y="50" width="12" height="12" rx="2" fill="#c8553d"/>
<rect x="270" y="50" width="12" height="12" rx="2" fill="#4f9d69"/>
<rect x="285" y="50" width="12" height="12" rx="2" fill="#4f9d69"/>
<rect x="300" y="50" width="12" height="12" rx="2" fill="#4f9d69"/>
<rect x="315" y="50" width="12" height="12" rx="2" fill="#c8553d"/>
<rect x="330" y="50" width="12" height="12" rx="2" fill="#4f9d69"/>
<rect x="345" y="50" width="12" height="12" rx="2" fill="#4f9d69"/>
<rect x="360" y="50" width="12" height="12" rx="2" fill="#4f9d69"/>
<rect x="375" y="50" width="12" height="12" rx="2" fill="#4f9d69"/>
<rect x="390" y="50" width="12" height="12" rx="2" fill="#4f9d69"/>
<rect x="405" y="50" width="12" height="12" rx="2" fill="#4f9d69"/>
<rect x="420" y="50" width="12" height="12" rx="2" fill="#4f9d69"/>
<rect x="435" y="50" width="12" height="12" rx="2" fill="#4f9d69"/>
<rect x="450" y="50" width="12" height="12" rx="2" fill="#4f9d69"/>
<rect x="465" y="50" width="12" height="12" rx="2" fill="#4f9d69"/>
<rect x="480" y="50" width="12" height="12" rx="2" fill="#4f9d69"/>
<rect x="495" y="50" width="12" height="12" rx="2" fill="#4f9d69"/>
<rect x="510" y="50" width="12" height="12" rx="2" fill="#4f9d69"/>
<rect x="525" y="50" width="12" height="12" rx="2" fill="#4f9d69"/>
<rect x="540" y="50" width="12" height="12" rx="2" fill="#4f9d69"/>
<rect x="555" y="50" width="12" height="12" rx="2" fill="#4f9d69"/>
<rect x="570" y="50" width="12" height="12" rx="2" fill="#4f9d69"/>
<rect x="585" y="50" width="12" height="12" rx="2" fill="#4f9d69"/>
<rect x="600" y="50" width="12" height="12" rx="2" fill="#4f9d69"/>
<rect x="615" y="50" width="12" height="12" rx="2" fill="#c8553d"/>
<rect x="630" y="50" width="12" height="12" rx="2" fill="#4f9d69"/>
<rect x="645" y="50" width="12" height="12" rx="2" fill="#4f9d69"/>
<rect x="660" y="50" width="12" height="12" rx="2" fill="#4f9d69"/>
<rect x="675" y="50" width="12" height="12" rx="2" fill="#4f9d69"/>
<rect x="690" y="50" width="12" height="12" rx="2" fill="#4f9d69"/>
<rect x="705" y="50" width="12" height="12" rx="2" fill="#4f9d69"/>
<rect x="720" y="50" width="12" height="12" rx="2" fill="#4f9d69"/>
<rect x="735" y="50" width="12" height="12" rx="2" fill="#4f9d69"/>
<rect x="750" y="50" width="12" height="12" rx="2" fill="#4f9d69"/>
<rect x="765" y="50" width="12" height="12" rx="2" fill="#4f9d69"/>
<rect x="780" y="50" width="12" height="12" rx="2" fill="#4f9d69"/>
<rect x="795" y="50" width="12" height="12" rx="2" fill="#c8553d"/>
<rect x="810" y="50" width="12" height="12" rx="2" fill="#4f9d69"/>
<rect x="825" y="50" width="12" height="12" rx="2" fill="#4f9d69"/>
<rect x="840" y="50" width="12" height="12" rx="2" fill="#4f9d69"/>
<rect x="855" y="50" width="12" height="12" rx="2" fill="#4f9d69"/>
<rect x="870" y="50" width="12" height="12" rx="2" fill="#4f9d69"/>
<rect x="885" y="50" width="12" height="12" rx="2" fill="#4f9d69"/>
<text x="20" y="89" font-family="Arial" font-size="12" fill="#2f3a40">Specialist 512</text>
<rect x="150" y="78" width="12" height="12" rx="2" fill="#c8553d"/>
<rect x="165" y="78" width="12" height="12" rx="2" fill="#4f9d69"/>
<rect x="180" y="78" width="12" height="12" rx="2" fill="#4f9d69"/>
<rect x="195" y="78" width="12" height="12" rx="2" fill="#c8553d"/>
<rect x="210" y="78" width="12" height="12" rx="2" fill="#4f9d69"/>
<rect x="225" y="78" width="12" height="12" rx="2" fill="#4f9d69"/>
<rect x="240" y="78" width="12" height="12" rx="2" fill="#4f9d69"/>
<rect x="255" y="78" width="12" height="12" rx="2" fill="#4f9d69"/>
<rect x="270" y="78" width="12" height="12" rx="2" fill="#4f9d69"/>
<rect x="285" y="78" width="12" height="12" rx="2" fill="#4f9d69"/>
<rect x="300" y="78" width="12" height="12" rx="2" fill="#4f9d69"/>
<rect x="315" y="78" width="12" height="12" rx="2" fill="#c8553d"/>
<rect x="330" y="78" width="12" height="12" rx="2" fill="#4f9d69"/>
<rect x="345" y="78" width="12" height="12" rx="2" fill="#4f9d69"/>
<rect x="360" y="78" width="12" height="12" rx="2" fill="#4f9d69"/>
<rect x="375" y="78" width="12" height="12" rx="2" fill="#4f9d69"/>
<rect x="390" y="78" width="12" height="12" rx="2" fill="#4f9d69"/>
<rect x="405" y="78" width="12" height="12" rx="2" fill="#4f9d69"/>
<rect x="420" y="78" width="12" height="12" rx="2" fill="#4f9d69"/>
<rect x="435" y="78" width="12" height="12" rx="2" fill="#4f9d69"/>
<rect x="450" y="78" width="12" height="12" rx="2" fill="#4f9d69"/>
<rect x="465" y="78" width="12" height="12" rx="2" fill="#4f9d69"/>
<rect x="480" y="78" width="12" height="12" rx="2" fill="#4f9d69"/>
<rect x="495" y="78" width="12" height="12" rx="2" fill="#4f9d69"/>
<rect x="510" y="78" width="12" height="12" rx="2" fill="#4f9d69"/>
<rect x="525" y="78" width="12" height="12" rx="2" fill="#4f9d69"/>
<rect x="540" y="78" width="12" height="12" rx="2" fill="#4f9d69"/>
<rect x="555" y="78" width="12" height="12" rx="2" fill="#4f9d69"/>
<rect x="570" y="78" width="12" height="12" rx="2" fill="#4f9d69"/>
<rect x="585" y="78" width="12" height="12" rx="2" fill="#4f9d69"/>
<rect x="600" y="78" width="12" height="12" rx="2" fill="#4f9d69"/>
<rect x="615" y="78" width="12" height="12" rx="2" fill="#4f9d69"/>
<rect x="630" y="78" width="12" height="12" rx="2" fill="#c8553d"/>
<rect x="645" y="78" width="12" height="12" rx="2" fill="#4f9d69"/>
<rect x="660" y="78" width="12" height="12" rx="2" fill="#4f9d69"/>
<rect x="675" y="78" width="12" height="12" rx="2" fill="#4f9d69"/>
<rect x="690" y="78" width="12" height="12" rx="2" fill="#4f9d69"/>
<rect x="705" y="78" width="12" height="12" rx="2" fill="#4f9d69"/>
<rect x="720" y="78" width="12" height="12" rx="2" fill="#4f9d69"/>
<rect x="735" y="78" width="12" height="12" rx="2" fill="#4f9d69"/>
<rect x="750" y="78" width="12" height="12" rx="2" fill="#4f9d69"/>
<rect x="765" y="78" width="12" height="12" rx="2" fill="#4f9d69"/>
<rect x="780" y="78" width="12" height="12" rx="2" fill="#4f9d69"/>
<rect x="795" y="78" width="12" height="12" rx="2" fill="#c8553d"/>
<rect x="810" y="78" width="12" height="12" rx="2" fill="#4f9d69"/>
<rect x="825" y="78" width="12" height="12" rx="2" fill="#4f9d69"/>
<rect x="840" y="78" width="12" height="12" rx="2" fill="#4f9d69"/>
<rect x="855" y="78" width="12" height="12" rx="2" fill="#c8553d"/>
<rect x="870" y="78" width="12" height="12" rx="2" fill="#4f9d69"/>
<rect x="885" y="78" width="12" height="12" rx="2" fill="#4f9d69"/>
<text x="20" y="117" font-family="Arial" font-size="12" fill="#2f3a40">Official 2048</text>
<rect x="150" y="106" width="12" height="12" rx="2" fill="#c8553d"/>
<rect x="165" y="106" width="12" height="12" rx="2" fill="#4f9d69"/>
<rect x="180" y="106" width="12" height="12" rx="2" fill="#4f9d69"/>
<rect x="195" y="106" width="12" height="12" rx="2" fill="#c8553d"/>
<rect x="210" y="106" width="12" height="12" rx="2" fill="#c8553d"/>
<rect x="225" y="106" width="12" height="12" rx="2" fill="#c8553d"/>
<rect x="240" y="106" width="12" height="12" rx="2" fill="#4f9d69"/>
<rect x="255" y="106" width="12" height="12" rx="2" fill="#c8553d"/>
<rect x="270" y="106" width="12" height="12" rx="2" fill="#4f9d69"/>
<rect x="285" y="106" width="12" height="12" rx="2" fill="#c8553d"/>
<rect x="300" y="106" width="12" height="12" rx="2" fill="#4f9d69"/>
<rect x="315" y="106" width="12" height="12" rx="2" fill="#c8553d"/>
<rect x="330" y="106" width="12" height="12" rx="2" fill="#c8553d"/>
<rect x="345" y="106" width="12" height="12" rx="2" fill="#4f9d69"/>
<rect x="360" y="106" width="12" height="12" rx="2" fill="#4f9d69"/>
<rect x="375" y="106" width="12" height="12" rx="2" fill="#c8553d"/>
<rect x="390" y="106" width="12" height="12" rx="2" fill="#4f9d69"/>
<rect x="405" y="106" width="12" height="12" rx="2" fill="#c8553d"/>
<rect x="420" y="106" width="12" height="12" rx="2" fill="#c8553d"/>
<rect x="435" y="106" width="12" height="12" rx="2" fill="#c8553d"/>
<rect x="450" y="106" width="12" height="12" rx="2" fill="#c8553d"/>
<rect x="465" y="106" width="12" height="12" rx="2" fill="#4f9d69"/>
<rect x="480" y="106" width="12" height="12" rx="2" fill="#c8553d"/>
<rect x="495" y="106" width="12" height="12" rx="2" fill="#c8553d"/>
<rect x="510" y="106" width="12" height="12" rx="2" fill="#c8553d"/>
<rect x="525" y="106" width="12" height="12" rx="2" fill="#c8553d"/>
<rect x="540" y="106" width="12" height="12" rx="2" fill="#c8553d"/>
<rect x="555" y="106" width="12" height="12" rx="2" fill="#c8553d"/>
<rect x="570" y="106" width="12" height="12" rx="2" fill="#c8553d"/>
<rect x="585" y="106" width="12" height="12" rx="2" fill="#4f9d69"/>
<rect x="600" y="106" width="12" height="12" rx="2" fill="#4f9d69"/>
<rect x="615" y="106" width="12" height="12" rx="2" fill="#c8553d"/>
<rect x="630" y="106" width="12" height="12" rx="2" fill="#c8553d"/>
<rect x="645" y="106" width="12" height="12" rx="2" fill="#4f9d69"/>
<rect x="660" y="106" width="12" height="12" rx="2" fill="#4f9d69"/>
<rect x="675" y="106" width="12" height="12" rx="2" fill="#c8553d"/>
<rect x="690" y="106" width="12" height="12" rx="2" fill="#4f9d69"/>
<rect x="705" y="106" width="12" height="12" rx="2" fill="#c8553d"/>
<rect x="720" y="106" width="12" height="12" rx="2" fill="#c8553d"/>
<rect x="735" y="106" width="12" height="12" rx="2" fill="#c8553d"/>
<rect x="750" y="106" width="12" height="12" rx="2" fill="#c8553d"/>
<rect x="765" y="106" width="12" height="12" rx="2" fill="#4f9d69"/>
<rect x="780" y="106" width="12" height="12" rx="2" fill="#c8553d"/>
<rect x="795" y="106" width="12" height="12" rx="2" fill="#c8553d"/>
<rect x="810" y="106" width="12" height="12" rx="2" fill="#c8553d"/>
<rect x="825" y="106" width="12" height="12" rx="2" fill="#4f9d69"/>
<rect x="840" y="106" width="12" height="12" rx="2" fill="#c8553d"/>
<rect x="855" y="106" width="12" height="12" rx="2" fill="#c8553d"/>
<rect x="870" y="106" width="12" height="12" rx="2" fill="#c8553d"/>
<rect x="885" y="106" width="12" height="12" rx="2" fill="#4f9d69"/>
<text x="20" y="145" font-family="Arial" font-size="12" fill="#2f3a40">Specialist 2048</text>
<rect x="150" y="134" width="12" height="12" rx="2" fill="#c8553d"/>
<rect x="165" y="134" width="12" height="12" rx="2" fill="#4f9d69"/>
<rect x="180" y="134" width="12" height="12" rx="2" fill="#4f9d69"/>
<rect x="195" y="134" width="12" height="12" rx="2" fill="#c8553d"/>
<rect x="210" y="134" width="12" height="12" rx="2" fill="#c8553d"/>
<rect x="225" y="134" width="12" height="12" rx="2" fill="#c8553d"/>
<rect x="240" y="134" width="12" height="12" rx="2" fill="#4f9d69"/>
<rect x="255" y="134" width="12" height="12" rx="2" fill="#c8553d"/>
<rect x="270" y="134" width="12" height="12" rx="2" fill="#4f9d69"/>
<rect x="285" y="134" width="12" height="12" rx="2" fill="#4f9d69"/>
<rect x="300" y="134" width="12" height="12" rx="2" fill="#4f9d69"/>
<rect x="315" y="134" width="12" height="12" rx="2" fill="#c8553d"/>
<rect x="330" y="134" width="12" height="12" rx="2" fill="#c8553d"/>
<rect x="345" y="134" width="12" height="12" rx="2" fill="#4f9d69"/>
<rect x="360" y="134" width="12" height="12" rx="2" fill="#4f9d69"/>
<rect x="375" y="134" width="12" height="12" rx="2" fill="#c8553d"/>
<rect x="390" y="134" width="12" height="12" rx="2" fill="#4f9d69"/>
<rect x="405" y="134" width="12" height="12" rx="2" fill="#c8553d"/>
<rect x="420" y="134" width="12" height="12" rx="2" fill="#4f9d69"/>
<rect x="435" y="134" width="12" height="12" rx="2" fill="#c8553d"/>
<rect x="450" y="134" width="12" height="12" rx="2" fill="#c8553d"/>
<rect x="465" y="134" width="12" height="12" rx="2" fill="#4f9d69"/>
<rect x="480" y="134" width="12" height="12" rx="2" fill="#4f9d69"/>
<rect x="495" y="134" width="12" height="12" rx="2" fill="#c8553d"/>
<rect x="510" y="134" width="12" height="12" rx="2" fill="#c8553d"/>
<rect x="525" y="134" width="12" height="12" rx="2" fill="#c8553d"/>
<rect x="540" y="134" width="12" height="12" rx="2" fill="#c8553d"/>
<rect x="555" y="134" width="12" height="12" rx="2" fill="#c8553d"/>
<rect x="570" y="134" width="12" height="12" rx="2" fill="#c8553d"/>
<rect x="585" y="134" width="12" height="12" rx="2" fill="#4f9d69"/>
<rect x="600" y="134" width="12" height="12" rx="2" fill="#4f9d69"/>
<rect x="615" y="134" width="12" height="12" rx="2" fill="#c8553d"/>
<rect x="630" y="134" width="12" height="12" rx="2" fill="#c8553d"/>
<rect x="645" y="134" width="12" height="12" rx="2" fill="#4f9d69"/>
<rect x="660" y="134" width="12" height="12" rx="2" fill="#4f9d69"/>
<rect x="675" y="134" width="12" height="12" rx="2" fill="#c8553d"/>
<rect x="690" y="134" width="12" height="12" rx="2" fill="#4f9d69"/>
<rect x="705" y="134" width="12" height="12" rx="2" fill="#c8553d"/>
<rect x="720" y="134" width="12" height="12" rx="2" fill="#c8553d"/>
<rect x="735" y="134" width="12" height="12" rx="2" fill="#c8553d"/>
<rect x="750" y="134" width="12" height="12" rx="2" fill="#c8553d"/>
<rect x="765" y="134" width="12" height="12" rx="2" fill="#4f9d69"/>
<rect x="780" y="134" width="12" height="12" rx="2" fill="#c8553d"/>
<rect x="795" y="134" width="12" height="12" rx="2" fill="#c8553d"/>
<rect x="810" y="134" width="12" height="12" rx="2" fill="#c8553d"/>
<rect x="825" y="134" width="12" height="12" rx="2" fill="#4f9d69"/>
<rect x="840" y="134" width="12" height="12" rx="2" fill="#c8553d"/>
<rect x="855" y="134" width="12" height="12" rx="2" fill="#c8553d"/>
<rect x="870" y="134" width="12" height="12" rx="2" fill="#4f9d69"/>
<rect x="885" y="134" width="12" height="12" rx="2" fill="#4f9d69"/>
<text x="150" y="156" font-family="Arial" font-size="11" fill="#526064">green=success, red=failure, episodes 0-49 left to right</text>
</svg>